<svg xmlns="http://www.w3.org/2000/svg" xmlns:xlink="http://www.w3.org/1999/xlink" viewBox="0 0 258.37 179.26"><defs><style>.cls-1,.cls-2{fill:#fff;}.cls-1,.cls-6{stroke:#1d1d1b;stroke-miterlimit:10;stroke-width:4px;}.cls-3{clip-path:url(#clip-path);}.cls-4{fill:#6e6d6d;}.cls-5{fill:#363636;}.cls-6{fill:none;}</style><clipPath id="clip-path" transform="translate(12.61)"><path class="cls-1" d="M157.32,2H16.84A14.81,14.81,0,0,0,4,24.22L74.25,145.89a14.82,14.82,0,0,0,25.66,0L170.15,24.22A14.81,14.81,0,0,0,157.32,2Z"/></clipPath></defs><title>Element 1</title><g id="Ebene_2" data-name="Ebene 2"><g id="Ebene_1-2" data-name="Ebene 1"><path class="cls-2" d="M157.32,2H16.84A14.81,14.81,0,0,0,4,24.22L74.25,145.89a14.82,14.82,0,0,0,25.66,0L170.15,24.22A14.81,14.81,0,0,0,157.32,2Z" transform="translate(12.61)"/><g class="cls-3"><path class="cls-4" d="M76.29,44.68,15.6,149.8a5.68,5.68,0,0,0,4.92,8.52H141.9a5.68,5.68,0,0,0,4.92-8.52L86.13,44.68A5.68,5.68,0,0,0,76.29,44.68Z" transform="translate(12.61)"/><polygon class="cls-4" points="199.46 57.19 140.56 159.21 258.37 159.21 199.46 57.19"/><path class="cls-5" d="M41.25,50.41l-53,91.88a6,6,0,0,0,5.17,9H99.47a6,6,0,0,0,5.17-9L51.58,50.41A6,6,0,0,0,41.25,50.41Z" transform="translate(12.61)"/><path d="M117.5,21.68,36.17,171a5.6,5.6,0,0,0,4.92,8.27H203.74a5.59,5.59,0,0,0,4.91-8.27L127.32,21.68A5.59,5.59,0,0,0,117.5,21.68Z" transform="translate(12.61)"/></g><path class="cls-6" d="M157.32,2H16.84A14.81,14.81,0,0,0,4,24.22L74.25,145.89a14.82,14.82,0,0,0,25.66,0L170.15,24.22A14.81,14.81,0,0,0,157.32,2Z" transform="translate(12.61)"/></g></g></svg>